<?xml version="1.0" encoding="utf-8"?>
<!-- Generator: Adobe Illustrator 16.2.1, SVG Export Plug-In . SVG Version: 6.00 Build 0)  -->
<!DOCTYPE svg PUBLIC "-//W3C//DTD SVG 1.1//EN" "http://www.w3.org/Graphics/SVG/1.1/DTD/svg11.dtd">
<svg version="1.1" id="Layer_1" xmlns="http://www.w3.org/2000/svg" xmlns:xlink="http://www.w3.org/1999/xlink" x="0px" y="0px"
	 width="1108.35px" height="416.693px" viewBox="0 0 1108.35 416.693" enable-background="new 0 0 1108.35 416.693"
	 xml:space="preserve">
<g>
	<path d="M416.249,124.041h22.355c8.666,0,17.575,3.969,17.575,14.417c0,6.48-4.05,10.773-9.962,12.554v0.162
		c7.208,0.973,12.392,5.832,12.392,13.526c0,12.473-10.853,16.685-21.706,16.685h-20.654V124.041z M426.454,147.366h9.072
		c6.803,0,10.448-2.835,10.448-7.775c0-5.103-3.645-7.127-11.339-7.127h-8.181V147.366z M426.454,172.799h9.153
		c5.264,0,12.797-1.054,12.797-8.586c0-5.993-4.13-8.099-12.392-8.099h-9.558V172.799z M503.645,181.384h-9.233v-6.236h-0.163
		c-1.7,3.887-6.317,7.37-12.067,7.37c-10.125,0-14.336-7.776-14.336-15.713v-24.298h9.719v21.544c0,4.617,1.053,10.367,7.29,10.367
		c6.155,0,9.071-5.345,9.071-10.528v-21.383h9.719V181.384z M515.311,142.507h9.313v6.479h0.163
		c2.106-4.455,6.236-7.613,11.338-7.613c0.73,0,1.702,0.081,2.35,0.243v8.91c-1.296-0.325-2.106-0.406-2.997-0.406
		c-8.747,0-10.448,7.614-10.448,10.448v20.816h-9.719V142.507z M582.942,142.507v35.394c0,14.012-6.805,22.921-21.949,22.921
		c-6.318,0-14.255-2.267-19.277-6.398l5.589-7.532c3.726,3.563,8.747,5.508,13.607,5.508c9.395,0,12.311-5.67,12.311-13.365V176.2
		h-0.161c-2.835,3.807-7.371,5.832-12.718,5.832c-11.663,0-19.195-9.233-19.195-20.249c0-11.257,7.29-20.41,19.035-20.41
		c5.426,0,10.527,2.268,13.362,6.966h0.162v-5.832H582.942z M551.031,161.702c0,6.156,4.13,12.312,11.095,12.312
		c7.208,0,11.582-5.832,11.582-12.312c0-6.722-4.454-12.391-11.501-12.391C555.161,149.312,551.031,154.817,551.031,161.702
		 M631.622,165.024h-29.562c0.403,5.506,5.427,9.556,11.096,9.556c4.858,0,8.099-1.943,10.286-5.021l6.479,5.183
		c-3.806,5.184-9.313,7.776-16.684,7.776c-11.988,0-20.897-7.695-20.897-20.329c0-12.555,8.828-20.816,20.573-20.816
		c10.853,0,18.791,7.046,18.791,21.059C631.704,163.322,631.704,164.132,631.622,165.024 M621.984,158.059
		c0-5.022-2.834-9.396-9.153-9.396c-5.75,0-10.367,3.969-10.771,9.396H621.984z M641.103,142.507h9.312v6.479h0.163
		c2.105-4.455,6.236-7.613,11.338-7.613c0.73,0,1.702,0.081,2.35,0.243v8.91c-1.296-0.325-2.105-0.406-2.996-0.406
		c-8.747,0-10.448,7.614-10.448,10.448v20.816h-9.719V142.507z M708.653,142.507v35.394c0,14.012-6.805,22.921-21.949,22.921
		c-6.318,0-14.255-2.267-19.277-6.398l5.589-7.532c3.727,3.563,8.747,5.508,13.606,5.508c9.396,0,12.312-5.67,12.312-13.365V176.2
		h-0.161c-2.835,3.807-7.371,5.832-12.718,5.832c-11.662,0-19.194-9.233-19.194-20.249c0-11.257,7.29-20.41,19.034-20.41
		c5.426,0,10.527,2.268,13.362,6.966h0.162v-5.832H708.653z M676.742,161.702c0,6.156,4.129,12.312,11.095,12.312
		c7.208,0,11.582-5.832,11.582-12.312c0-6.722-4.454-12.391-11.501-12.391S676.742,154.817,676.742,161.702 M757.332,165.024
		h-29.562c0.403,5.506,5.427,9.556,11.096,9.556c4.858,0,8.099-1.943,10.286-5.021l6.479,5.183
		c-3.806,5.184-9.313,7.776-16.684,7.776c-11.988,0-20.897-7.695-20.897-20.329c0-12.555,8.828-20.816,20.572-20.816
		c10.854,0,18.791,7.046,18.791,21.059C757.413,163.322,757.413,164.132,757.332,165.024 M747.694,158.059
		c0-5.022-2.834-9.396-9.153-9.396c-5.75,0-10.367,3.969-10.771,9.396H747.694z M827.557,157.086v24.298h-9.72V159.84
		c0-4.617-1.052-10.367-7.289-10.367c-6.075,0-8.586,5.669-8.586,10.69v21.221h-9.718v-23.488c0-4.779-2.268-8.423-7.209-8.423
		c-5.831,0-8.504,5.344-8.504,10.528v21.383h-9.72v-38.877h9.232v6.236h0.162c1.702-3.806,5.832-7.37,12.069-7.37
		c5.992,0,9.962,2.997,12.148,7.37c2.592-4.697,6.965-7.37,12.797-7.37C823.345,141.374,827.557,149.149,827.557,157.086
		 M875.915,165.024h-29.562c0.403,5.506,5.427,9.556,11.096,9.556c4.859,0,8.099-1.943,10.286-5.021l6.479,5.183
		c-3.806,5.184-9.313,7.776-16.684,7.776c-11.988,0-20.897-7.695-20.897-20.329c0-12.555,8.828-20.816,20.572-20.816
		c10.854,0,18.791,7.046,18.791,21.059C875.996,163.322,875.996,164.132,875.915,165.024 M866.277,158.059
		c0-5.022-2.834-9.396-9.153-9.396c-5.75,0-10.367,3.969-10.771,9.396H866.277z M890.335,123.475c3.564,0,6.318,2.51,6.318,5.831
		c0,3.321-2.754,5.832-6.318,5.832c-3.563,0-6.156-2.754-6.156-5.832C884.179,126.229,886.771,123.475,890.335,123.475
		 M885.556,142.507h9.721v38.877h-9.721V142.507z M907.103,142.507h9.232v6.236h0.162c1.702-3.887,6.318-7.37,12.069-7.37
		c10.124,0,14.336,7.776,14.336,15.713v24.298h-9.721V159.84c0-4.617-1.053-10.367-7.288-10.367c-6.155,0-9.071,5.344-9.071,10.528
		v21.383h-9.72V142.507z M993.769,181.384h-9.233v-5.832h-0.163c-2.672,4.455-7.937,6.966-13.363,6.966
		c-11.825,0-19.114-9.396-19.114-20.735c0-11.501,7.774-20.41,18.871-20.41c7.128,0,11.016,3.564,13.04,6.074h0.243v-27.295h9.72
		V181.384z M972.953,174.418c7.127,0,11.419-6.398,11.419-12.473c0-6.074-4.292-12.634-11.419-12.634
		c-7.533,0-11.177,6.398-11.177,12.472C961.776,167.858,965.42,174.418,972.953,174.418 M1042.61,165.024h-29.563
		c0.405,5.506,5.428,9.556,11.096,9.556c4.859,0,8.101-1.943,10.286-5.021l6.48,5.183c-3.808,5.184-9.315,7.776-16.685,7.776
		c-11.987,0-20.896-7.695-20.896-20.329c0-12.555,8.828-20.816,20.572-20.816c10.853,0,18.791,7.046,18.791,21.059
		C1042.691,163.322,1042.691,164.132,1042.61,165.024 M1032.971,158.059c0-5.022-2.834-9.396-9.151-9.396
		c-5.75,0-10.367,3.969-10.772,9.396H1032.971z M416.249,220.041h22.355c8.666,0,17.575,3.969,17.575,14.417
		c0,6.479-4.05,10.772-9.962,12.554v0.162c7.208,0.973,12.392,5.832,12.392,13.526c0,12.473-10.853,16.685-21.706,16.685h-20.654
		V220.041z M426.454,243.367h9.072c6.803,0,10.448-2.835,10.448-7.775c0-5.103-3.645-7.127-11.339-7.127h-8.181V243.367z
		 M426.454,268.799h9.153c5.264,0,12.797-1.054,12.797-8.586c0-5.993-4.13-8.099-12.392-8.099h-9.558V268.799z M505.184,261.024
		h-29.563c0.405,5.507,5.427,9.557,11.096,9.557c4.86,0,8.1-1.943,10.286-5.021l6.48,5.184c-3.807,5.184-9.315,7.775-16.685,7.775
		c-11.987,0-20.896-7.694-20.896-20.329c0-12.555,8.828-20.815,20.572-20.815c10.854,0,18.791,7.046,18.791,21.059
		C505.265,259.323,505.265,260.132,505.184,261.024 M495.545,254.058c0-5.021-2.834-9.396-9.152-9.396
		c-5.75,0-10.367,3.969-10.772,9.396H495.545z M514.663,238.507h9.314v6.479h0.162c2.107-4.455,6.236-7.613,11.339-7.613
		c0.729,0,1.701,0.081,2.35,0.243v8.91c-1.296-0.325-2.107-0.406-2.998-0.406c-8.747,0-10.448,7.613-10.448,10.448v20.815h-9.719
		V238.507z M544.147,238.507h9.232v6.236h0.162c1.702-3.888,6.318-7.37,12.069-7.37c10.124,0,14.336,7.775,14.336,15.713v24.298
		h-9.72V255.84c0-4.617-1.054-10.367-7.289-10.367c-6.155,0-9.071,5.345-9.071,10.528v21.383h-9.719V238.507z M179.55,148.541
		c0-0.501,0.196-1.048,0.65-1.536c1.211-1.303,3.137-1.239,4.733-0.84c1.394,0.349,2.969,0.917,3.781,2.174
		c0.844,1.305,0.64,2.77-0.158,4.521c-1.954-1.456-4.006-2.502-5.915-3.128c-0.947-0.312-2.004-0.539-2.535-0.659
		C179.841,149.013,179.55,148.822,179.55,148.541 M151.25,163.213c0.388,0.832,0.751,1.678,1.087,2.531
		c0.25,0.632,0.532,0.999,1.255,1.036c3.863,0.199,7.87,0.746,11.533,2.03c1.3,0.455,2.07,0.741,3.292,1.375
		c0.699,0.361,2.452,1.585,2.953,0.458c0.491-1.106-1.802-1.974-2.53-2.346c-2.145-1.097-4.415-1.962-6.738-2.595
		c-2.437-0.662-4.57-1.116-6.593-2.727c-1.292-1.03-2.386-2.265-3.389-3.57c-0.305-0.397-0.612-0.804-1.161-0.87
		c-1.076-0.128-1.66,1.053-1.15,1.912C150.34,161.341,150.81,162.273,151.25,163.213 M160.885,160.547
		c0.266,0.639-0.619,1.991-0.9,2.573c-0.407,0.847-0.746,0.514-0.989-0.276c-0.23-0.744-0.347-2.199,0.194-2.855
		C159.594,159.5,160.692,160.094,160.885,160.547 M163.734,161.759c0.269,0.637-0.616,1.99-0.895,2.57
		c-0.409,0.848-0.747,0.522-0.992-0.272c-0.228-0.745-0.346-2.199,0.196-2.855C162.445,160.715,163.543,161.31,163.734,161.759
		 M232.238,230.886c0.791,2.027-1.701,3.263-3.098,4.053c-1.312,0.743-3.938,1.768-5.464,0.78c-0.69-0.448-1.205-1.201-1.657-1.872
		c-0.225-0.336-0.931-0.85-1.494-0.538c-0.8,0.444,1.025,2.5,1.375,2.888c0.2,0.219,0.413,0.429,0.647,0.612
		c-0.146,0.212-0.326,0.399-0.538,0.549c-0.58,0.413-1.267,0.446-1.954,0.438c-2.452-0.024-4.882-0.312-7.286-0.798
		c-0.982-0.198-1.962-0.482-2.972-0.351c-1.261,0.165-2.079,0.967-3.161,1.528c-1.206,0.623-1.634-0.443-1.095-1.396
		c0.548-0.97,1.476-1.737,2.314-2.444c0.608-0.515,2.287-1.256,0.789-1.758c-1.18-0.395-2.594,0.473-3.596,0.998
		c-0.441,0.23-1.575,0.923-1.987,0.304c-0.283-0.429,0.074-1.13,0.357-1.48c0.881-1.094,2.292-1.771,3.571-2.263
		c-0.732-1.274-2.412-0.905-3.57-0.552c-0.498,0.153-1.467,0.716-1.971,0.391c-0.462-0.299-0.097-0.963,0.121-1.309
		c1.287-2.046,3.722-2.712,6.021-2.437c-0.023-1.503-1.004-2.086-2.397-2.12c-1.113-0.028-3.499,0.354-2.292-1.467
		c1.916-2.893,5.695-1.847,8.095-0.223c-0.653,0.278-2.738,1.929-1.431,2.663c0.493,0.277,1.148,0.22,1.692,0.244
		c0.644,0.029,1.276,0.2,1.849,0.494c1.34,0.691,1.857,1.795,2.378,3.132c0.546,1.406,1.815,1.435,3.139,1.193
		C222.734,229.402,229.905,224.88,232.238,230.886 M191.256,78.805c-3.581,0.453-8.664,1.214-12.15,1.911l-0.16-0.728
		c0,0,3.619-3.456,7.244-4.445C189.856,74.523,191.256,78.805,191.256,78.805 M189.922,71.63c-3.578,0.433-8.66,1.197-12.15,1.899
		l-0.176-0.733c0,0,3.632-3.442,7.264-4.448C188.523,67.322,189.922,71.63,189.922,71.63 M176.418,66.335l-0.162-0.731
		c0,0,3.639-3.438,7.254-4.446c3.674-1.013,5.068,3.281,5.068,3.281C184.996,64.88,179.926,65.639,176.418,66.335 M188.832,198.025
		c0.041,0.458,0.243,0.904,0.471,1.297c-0.353,0.357-0.847,0.551-1.338,0.617c-0.27,0.036-1.042-1.554-1.474-1.784
		c-0.873-0.463-0.549,0.993-0.393,1.39c0.195,0.497,0.314,0.616-0.271,0.854c-0.216,0.085-0.99,0.394-1.113,0.158
		c-0.363-0.695-0.991-1.548-1.861-1.548c-0.613,0.309,0.084,1.578,0.338,1.98c-1.094,0.575-4.208,2.349-4.212-0.149
		c-0.002-1.078-0.389-2.631-1.065-3.49c-2.925-3.725-8.043-2.53-11.552-2.974c-0.741-0.094-1.465-0.356-1.95-0.575
		c-0.321-0.147-0.414-1.286-0.439-2.019c-0.03-0.87-0.299-1.771-0.752-2.471c-0.299-0.462-0.756-0.952-1.062-1.172
		c-0.307-0.22-0.488-0.304-0.702-0.406c-0.741-0.356,0.815-0.477,1.013-0.485c1.329-0.055,2.491,0.17,3.15,1.382
		c0.34,0.625,0.176,0.699,0.544,1.317c0.552,0.924,1.512,1.304,2.567,1.176c2.76-0.335,5.41-2.431,7.731-3.806
		c2.856-1.694,5.026-3.53,7.738-4.218c1.353-0.344,1.823,0.232,2.737,1.163c1.063,1.084,2.057,2.484,2.765,3.829
		c1.55,2.942,2.657,6.254,2.563,10.495c-0.46,0.241-1.023,0.459-1.505,0.575c-0.168-0.354-0.37-0.698-0.615-1.004
		C189.779,197.7,188.728,196.896,188.832,198.025 M223.443,122.738c2.523-0.303,6.049-0.834,8.492-1.325l0.122,0.516
		c0,0-2.528,2.423-5.072,3.125C224.416,125.748,223.443,122.738,223.443,122.738 M139.056,196.811
		c0,26.956,5.927,48.125,17.614,62.917c11.967,15.146,29.344,22.825,51.651,22.825c22.307,0,39.684-7.68,51.651-22.825
		c11.688-14.793,17.613-35.962,17.613-62.917v-57.312l-69.264,0.001l-69.263-0.001L139.056,196.811z M208.321,280.149
		c-40.492,0-63.897-26.108-66.595-73.804l101.828,64.909C233.877,277.116,222.093,280.149,208.321,280.149 M208.321,141.902h66.861
		v51.039l-80.066-51.039H208.321z M141.461,141.902h49.184l84.537,53.888v1.02c0,35.23-10.206,60.083-29.382,73.025l-104.2-66.421
		c-0.084-2.165-0.141-4.355-0.141-6.604L141.461,141.902z M222.501,118.616c2.504-0.299,6.061-0.83,8.495-1.332l0.123,0.52
		c0,0-2.536,2.403-5.068,3.107C223.485,121.616,222.501,118.616,222.501,118.616 M183.757,126.117
		c2.46,0.492,5.988,1.034,8.504,1.326c0,0-0.965,2.996-3.557,2.313c-2.513-0.715-5.062-3.133-5.062-3.133L183.757,126.117z
		 M192.597,86.01c-3.583,0.449-8.644,1.195-12.156,1.894l-0.154-0.726c0,0,3.611-3.458,7.239-4.444
		C191.196,81.72,192.597,86.01,192.597,86.01 M224.38,127.443c2.518-0.292,6.046-0.834,8.505-1.326l0.116,0.506
		c0,0-2.548,2.418-5.061,3.133C225.347,130.439,224.38,127.443,224.38,127.443 M193.948,93.188c-3.582,0.453-8.646,1.2-12.15,1.916
		l-0.178-0.744c0,0,3.638-3.447,7.257-4.438C192.567,88.901,193.948,93.188,193.948,93.188 M146.866,190.748
		c0.22-1.9,6.189,0.067,7.033,0.463c0.216-1.505-0.826-2.7-1.93-3.572c-0.589-0.467-1.224-0.868-1.872-1.245
		c-0.487-0.284-1.367-0.599-1.602-1.15c-0.691-1.618,2.517-1.342,3.239-1.252c1.97,0.248,3.819,0.993,5.415,2.173
		c0.088-1.535,0.065-3.262-1.096-4.424c-0.487-0.487-1.099-0.83-1.715-1.125c-1.256-0.599,0.277-1.418,1.019-1.418
		c1.963,0,3.588,0.952,4.861,2.388c0.576,0.649,1.05,1.417,1.69,2.003c0.753,0.688,1.532,1.209,1.927,2.194
		c-1.32-0.181-5.122-0.057-4.946,2.073c0.067,0.821,1.331,0.957,1.932,1.239c0.798,0.373,1.318,1.021,1.515,1.884
		c0.411,1.8-0.211,3.659,1.954,4.424c2.262,0.799,4.771,0.516,7.124,0.689c1.846,0.134,4.013,0.47,5.209,2.044
		c1.548,2.037,0.868,4.451-1.492,5.353c-2.279,0.874-4.854,0.579-7.214,0.263c-1.13-0.151-0.207,0.022-1.321-0.218
		c-0.542-0.115-3.219-0.465-3.625-0.903c-0.518-0.559-0.262-1.927-0.262-2.609c0-1.811-0.418-2.259-1.034-2.542
		c-0.933-0.428-0.495,1.216-0.477,1.555c0.052,1.039-0.158,2.079,0.008,3.115c-2.187-0.436-4.098-1.305-5.968-2.495
		c-1.857-1.178-3.822-2.205-5.659-3.403c-1.199-0.779-0.87-1.713,0.483-1.816c0.497-0.039,2.372,0.297,2.288-0.356
		c-0.119-0.937-1.67-1.375-2.388-1.641C149.379,192.221,146.763,191.639,146.866,190.748 M185.648,117.284
		c2.433,0.502,5.988,1.033,8.494,1.332c0,0-0.983,3-3.552,2.295c-2.531-0.704-5.065-3.107-5.065-3.107L185.648,117.284z
		 M184.706,121.414c2.444,0.491,5.971,1.022,8.493,1.325c0,0-0.972,3.009-3.54,2.316c-2.546-0.702-5.074-3.125-5.074-3.125
		L184.706,121.414z M233.133,61.158c3.613,1.008,7.252,4.446,7.252,4.446l-0.16,0.731c-3.51-0.696-8.578-1.455-12.16-1.896
		C228.065,64.439,229.457,60.146,233.133,61.158 M231.782,68.348c3.632,1.006,7.265,4.448,7.265,4.448l-0.177,0.733
		c-3.489-0.702-8.571-1.466-12.149-1.899C226.721,71.63,228.12,67.322,231.782,68.348 M313.702,99.13
		c-23.23-25.818-54.894-42.206-89.162-46.143c-2.171-0.248-3.823,0.982-4.281,3.235l-7.515,40.126
		c-0.402,2.406-0.297,3.986,1.462,5.497l4.68,3.532l-4.676,0.801l6.376,28.063l1.076,0.006c0.07,0.001,0.14,0.001,0.212,0.001
		c7.324,0,23.649-1.985,29.261-6.691c0.847-0.709,2.955-5.782,6.266-15.079c27.582,16.68,45.89,46.972,45.89,81.324
		c0,52.363-42.603,94.965-94.969,94.965c-52.367,0-94.97-42.602-94.97-94.965c0-34.406,18.368-64.741,46.022-81.407
		c2.407,6.752,5.225,14.202,6.232,15.046c5.583,4.68,21.858,6.656,29.161,6.656c0.071,0,0.143-0.001,0.213-0.001l0.954-0.005
		l6.312-27.79l-4.659-0.798l4.911-3.707c1.698-1.465,1.802-3.044,1.398-5.471l-7.516-40.122c-0.455-2.235-2.103-3.465-4.279-3.216
		c-34.267,3.937-65.932,20.325-89.16,46.143c-23.442,26.056-36.352,59.677-36.352,94.672c0,78.15,63.581,141.729,141.733,141.729
		c78.151,0,141.732-63.579,141.732-141.729C350.054,158.808,337.144,125.187,313.702,99.13 M222.749,131.533l-5.264-23.169
		l4.368-0.749l2.856,2.156c-1.444,0.221-2.886,0.42-4.089,0.564c0,0,0.983,2.999,3.549,2.295c0.929-0.26,1.856-0.748,2.66-1.26
		l2.54,1.916c-2.384,0.461-5.526,0.924-7.808,1.198c0,0,0.982,3,3.549,2.294c2.191-0.609,4.381-2.488,4.931-2.983l17.247,13.014
		C241.605,129.647,230.117,131.406,222.749,131.533 M249.411,125.399l-33.696-25.423c-0.317-0.274-0.536-0.525-0.657-0.902
		c14.486,1.015,28.026,5.283,39.956,12.032C252.754,117.447,250.226,124.036,249.411,125.399 M199.341,108.241l-5.326,23.447
		c-7.404-0.112-19.069-1.897-24.792-4.781l17.377-13.113c0.551,0.495,2.741,2.375,4.932,2.984c2.567,0.706,3.549-2.294,3.549-2.294
		c-2.282-0.274-5.425-0.737-7.808-1.199l2.54-1.917c0.805,0.514,1.728,1.002,2.658,1.262c2.567,0.704,3.551-2.295,3.551-2.295
		c-1.202-0.144-2.646-0.343-4.092-0.563l3.024-2.284L199.341,108.241z M200.99,99.926l-33.88,25.564
		c-0.814-1.349-3.351-7.956-5.623-14.334c11.961-6.793,25.563-11.065,40.104-12.082C201.479,99.441,201.276,99.677,200.99,99.926
		 M208.322,333.127c-76.826,0-139.328-62.501-139.328-139.325c0-70.835,53.042-130.345,123.38-138.425
		c0.583-0.069,1.384-0.004,1.648,1.288l7.493,40.006c-50.889,3.51-90.566,45.925-90.566,97.131c0,53.688,43.68,97.369,97.372,97.369
		c53.692,0,97.374-43.681,97.374-97.369c0-51.206-39.677-93.617-90.566-97.131l7.489-39.987c0.267-1.31,1.062-1.378,1.649-1.307
		c70.34,8.08,123.383,67.59,123.383,138.425C347.65,270.626,285.148,333.127,208.322,333.127 M230.452,75.543
		c3.627,0.989,7.246,4.445,7.246,4.445l-0.162,0.728c-3.487-0.697-8.571-1.458-12.151-1.911
		C225.385,78.805,226.787,74.523,230.452,75.543 M159.92,154.692c-0.876,0.278-2.453,0.901-2.453,1.996
		c0,1.082,1.26,1.561,2.089,1.908c1.008,0.422,2.016,0.846,3.017,1.285c2.258,0.987,4.518,2.03,6.585,3.387
		c1.671,1.096,3.391,2.491,4.164,4.396c0.637,1.575,0.536,3.479-1.025,4.445c-2.093,1.294-5.098,0.944-7.396,0.606
		c-0.948-0.14-2.176-0.197-2.92-0.871c-0.552-0.501-1.404-2.891-2.24-2.557c-0.874,0.35-0.045,2.639,0.085,3.221
		c0.156,0.699,0.314,1.412,0.328,2.133c0.445,0.23,0.928,0.398,1.416,0.515c0.919,0.222,1.88,0.162,2.818,0.196
		c5.921,0.212,12.04,1.272,17.432,3.801c3.265,1.534,6.305,3.714,8.344,6.737c2.911,4.317,4.143,10.209,3.374,15.318
		c-0.555,3.687-1.959,7.189-3.775,10.425c-0.581,1.036-1.168,2.361-1.989,3.23c-0.275,0.29-1.123,0.837-1.546,0.659
		c-0.516-0.216-0.648-0.896-0.382-1.176c0.372-0.389,0.832-0.301,1.127-0.774c0.311-0.501,0.618-1.004,0.918-1.513
		c-0.977-0.105-1.839-0.09-2.163-1.245c-0.233-0.83,0.127-1.431-0.386-2.249c-1.062-1.699-3.674-2.617-5.614-2.525
		c-0.493,0.027-0.966,0.431-0.751,0.954c0.194,0.476,0.781,0.699,1.138,1.038c0.702,0.665,1.487,1.686,1.642,2.672
		c0.19,1.196-0.955,0.774-1.516,0.408c-0.913-0.596-1.958-1.126-3.044-1.295c-0.825-0.127-1.772-0.015-2.543,0.301
		c-0.686,0.279-2.122,1.667-0.853,2.157c1.031,0.398,2.195,0.05,3.253,0.455c0.702,0.269,1.336,0.746,1.75,1.379
		c0.789,1.232-1.271,1.246-1.922,1.368c-0.975,0.186-1.876,0.688-2.492,1.475c-0.219,0.281-0.975,1.366-0.399,1.627
		c0.923,0.421,2.494,0.065,3.472,0.078c0.663,0.009,1.617-0.066,2.124,0.453c0.127,0.131,0.378,0.541,0.256,0.751
		c-0.084,0.149-1.379,0.323-1.603,0.421c-0.827,0.356-0.632,0.902,0.048,1.327c0.529,0.327,1.137,0.533,1.738,0.683
		c0.179,0.045,0.95-1.055,1.213-1.219c0.63-0.396,1.543-0.143,1.765,0.627c0.218,0.75-1.003,1.059-1.505,1.173
		c2.835,1.481,6.331,2.19,9.443,1.225c3.038-0.942,5.782-2.675,8.011-4.935c1.264-1.281,2.405-2.731,3.268-4.316
		c0.196-0.359-0.127-0.493-0.293-0.854c-0.279-0.612,0.749-0.449,1.114-0.396c0.427-0.612,0.836-1.243,1.197-1.899
		c0.223-0.407-0.107-0.378-0.428-0.622c-0.264-0.2-0.713-0.409-0.65-0.732c0.063-0.32,1.232-0.229,1.837-0.208
		c0.459-0.645,0.804-1.382,1.152-2.09c-0.622-0.241-1.728-0.841-1.588-1.239c0.14-0.399,1.367-0.365,2.076-0.323
		c0.536,0.031,0.969-1.393,1.143-1.833c-0.386-0.136-1.991-0.601-2.011-1.123c-0.031-0.787,2.345-0.748,2.76-0.719
		c0.514-1.62,0.92-3.316,1.047-5.012c0.169-2.244-1.092-4.284-0.599-6.532c0.096-0.431,0.597-2.029,1.307-1.53
		c0.352,0.247,0.493,0.936,0.399,1.234c-0.216,0.673-0.272,1.398-0.084,2.086c0.301,1.102,1.236,1.885,1.387,3.057
		c0.134,1.067-0.259,2.199-0.652,3.172c-0.255,0.625-0.534,1.118,0.012,1.728c0.659,0.737,1.217,0.883,2.14,0.973
		c5.432,0.541,10.954-1.234,16.065,1.369c1.106,0.561,2.796,1.559,2.537,3.038c-3.28-1.607-8.206-3.01-11.519-0.816
		c-1.769,1.171-2.787,3.426-2.776,5.512c0.016,2.873,1.561,5.559,2.782,8.07c0.819,1.687,2.673,5.031,0.064,6.098
		c-1.162,0.475-2.423-0.325-3.411-0.865c-1.244-0.669-2.103-1.082-2.868-1.242c-0.861-0.181-1.941,0.101-2.3,0.305
		c-0.242,0.136-0.267,0.375,0.426,0.553c2.026,0.518,3.468,1.788,4.32,4.267c0.184,0.532,0.668,0.626,1.951,0.298
		c1.47-0.377,2.584-0.745,3.96-1.236c2.177-0.778,5.188-1.461,7.448-0.657c0.84,0.297,1.818,1.045,2.379,1.736
		c0.291,0.36,0.62,0.894,0.814,1.315c0.212,0.459,0.386,0.911,0.594,1.262c0.164,0.276,0.587-0.117,0.794-0.354
		c0.879-1.003,1.521-2.225,2.041-3.443c0.469-1.108,0.593-2.315,0.116-3.44c-0.415-0.973-1.237-1.66-1.704-2.59
		c-0.941-1.875-0.439-3.694-0.439-5.681c0-2.774-0.897-5.757-0.897-6.697c0-2.578,1.698-7.348,1.698-8.829
		c0-1.002-0.282-1.604-0.595-1.96c-0.278-0.314-0.673-0.367-0.763-0.771c-0.1-0.449,0.571-0.837,0.91-0.656
		c0.571,0.307,1.103,0.764,1.441,1.323c1.117,1.851,0.125,4.302-0.213,6.252c-0.36,2.073-0.471,4.402-0.039,7.837
		c0.681,5.431,4.296,16.082,9.825,22.954c1.207,1.499,0.472,4.444,0.159,6.175c-0.223,1.232-1.25,4.394-2.706,4.394
		c-1.177,0-2.1-1.273-3.024-1.869c-1.188-0.768-2.643-1.159-4.033-0.771c-0.946,0.264-3.951,1.862-2.881,3.303
		c0.332,0.439,1.007,0.182,1.418,0.028c0.718-0.268,1.414-0.562,2.194-0.367c0.673,0.166,1.239,0.678,1.49,1.32
		c-2.409,0.391-4.515,2.274-5.675,4.335c-0.343,0.604-0.64,1.737,0.07,2.21c0.868,0.576,1.629-0.106,2.181-0.728
		c0.888-1.003,2.934-2.882,4.225-1.411c-0.902,0.783-1.708,1.733-2.336,2.746c-0.457,0.736-0.85,1.573-0.891,2.452
		c-0.02,0.391,0.011,0.94,0.283,1.251c0.595,0.679,1.31-0.309,1.604-0.74c0.613-0.9,2.434-3.48,3.889-2.524
		c0.248,0.163-1.135,2.331-1.283,2.688c-0.276,0.656-0.564,1.439-0.433,2.163c0.218,1.21,1.367,0.79,1.894,0.025
		c0.651-0.949,1.476-1.86,2.566-2.297c0.901-0.362,1.773-0.207,2.699-0.326c1.925-0.247,3.819-1.888,4.999-3.34
		c1.15-1.416,2.107-3,3.043-4.564c0.987-1.646,2.011-3.302,2.782-5.064c1.134-2.592,2.412-5.567,2.394-8.442
		c-0.002-0.526-0.062-1.084-0.312-1.555c-0.3-0.561-0.879-0.931-1.219-1.48c-0.945-1.516-1.338-3.377-1.62-5.119
		c-0.119-0.739-0.209-1.483-0.276-2.23c-0.033-0.396,0.053-0.877-0.258-1.136c-0.74-0.618-1.588-1.419-1.841-2.383
		c0.11-0.495,1.154-0.121,1.425,0.192c0.809-1.251,0.16-2.411-1.018-3.082c0.242-0.354,0.612-0.646,1.037-0.738
		c0.78-0.17-0.015-1.35-0.391-1.675c-0.151-0.131-1.309-1.121-0.954-1.342c0.474-0.296,1.133-0.003,1.542,0.268
		c0.75-1.573-0.037-2.733-1.55-3.203c0.653-0.159,1.322-0.372,1.656-1.021c0.139-0.266,0.18-0.566,0.154-0.864
		c-0.06-0.699-0.207-0.603-0.764-0.816c-0.385-0.148-0.732-0.381-1.033-0.66c0.371-0.087,1.735-0.438,1.536-0.883
		c-0.303-0.674-0.591-1.355-0.871-2.037c-0.692-1.703-1.52-3.556-1.659-5.411c2.157,0.033,2.272,3.703,3.955,4.6
		c0.969,0.518,2.248-0.049,2.125-1.218c-0.079-0.747-0.458-1.533-0.945-2.102c0.72-0.564,1.426,0.625,1.718,1.131
		c0.553,0.958,1.607-0.576,1.185-1.396c-0.241-0.462-0.69-0.793-1.127-1.059c-0.127-0.078-0.831-0.343-0.868-0.478
		c-0.1-0.364,0.654-0.369,0.808-0.338c0.445,0.095,0.804,0.456,0.97-0.159c0.577-2.121-2.987-3.903-4.464-4.485
		c-1.9-0.745-4.094-0.835-6.115-0.829c-0.282,0-0.508-0.643-0.645-0.864c-0.571-0.931-1.19-1.833-1.835-2.714
		c-2.322-3.162-5.025-6.051-8.013-8.592c-4.25-3.616-9.082-6.335-14.201-8.524c-3.499-1.496-7.147-2.776-10.893-3.493
		c-0.496-0.096-0.997-0.189-1.499-0.236c-0.103-0.01-0.28-0.401-0.331-0.476c-0.365-0.555-0.768-1.086-1.197-1.596
		c-1.293-1.543-2.853-2.925-4.681-3.798c-2.381-1.137-4.701-0.301-7.123,0.526c-1.226,0.419-2.416,0.928-3.599,1.452
		c-0.628,0.278-1.36,0.702-2.071,0.53c-0.664-0.159-0.327-1.159,0.159-1.272c1.854-0.439,4.055-1.697,4.937-3.435
		c1.353-2.666-1.328-5.896-3.728-6.855c-2.042-0.818-5.561-0.476-7.06,1.349c-4.302-4.917-11.903-7.047-18.09-5.128
		c-1.685,0.524-3.207,1.338-4.802,2.067c-2.368,1.079-4.118-0.068-6.078-1.343c-0.419-0.271-0.822-0.571-1.286-0.761
		c-0.906-0.366-2.332-0.093-2.062,1.209C157.718,153.259,158.976,154.131,159.92,154.692 M226.321,196.334
		c0.06,0,0.477,0.079,0.93,0.216c0.718,0.215,1.286,0.433,1.979,0.684c0.426,0.158,0.883,0.324,1.409,0.506
		c0.337,0.119,0.67,0.241,1.001,0.363c0.54,0.198,1.098,0.402,1.659,0.581c1.013,0.319,0.625,1.7,0.447,2.273
		c-0.048,0.157-0.1,0.32-0.136,0.487l-0.067,0.297c-0.066,0.296-0.114,0.51-0.149,0.864c-0.006,0.057-0.01,0.128-0.014,0.201
		c-0.022,0.403-0.053,0.957-0.498,0.957c-0.21,0-0.384-0.163-0.497-0.286c-0.653-0.715-1.367-1.404-2.058-2.07l-0.143-0.135
		c-0.887-0.858-1.785-1.705-2.687-2.549c-1.085-1.026-1.426-1.77-1.458-1.878C225.977,196.626,226.03,196.334,226.321,196.334
		 M180.738,165.519c-1.111,0-3.238-0.526-4.548-1.968c-0.903-0.993-1.286-2.242-1.145-3.714c0.032-0.319,0.083-0.852,0.656-0.852
		c0.101,0,0.215,0.016,0.346,0.052c0.365,0.099,0.749,0.207,1.112,0.312l0.665,0.186l0.212,0.06l-0.079,0.205
		c-0.396,1.051-0.329,2.043,0.191,2.793c0.568,0.821,1.625,1.294,2.898,1.294c1.412,0,2.345-0.988,2.378-2.519l0.006-0.258
		l0.249,0.07c0.083,0.023,0.216,0.052,0.363,0.083c0.146,0.029,0.305,0.063,0.451,0.098c0.331,0.082,0.52,0.291,0.479,0.531
		C184.771,163.154,183.322,165.519,180.738,165.519 M173.316,155.631c0.371-0.648,2.214-1.078,2.86-1.078
		c0.146,0,0.305,0.015,0.386,0.137c0.119,0.177-0.046,0.316-0.238,0.476c-0.102,0.085-0.412,0.345-0.415,0.444
		c0,0.203,0,0.245,0.317,0.339c3.33,1.001,7.23,1.997,9.558,2.546c0.765,0.182,0.997,0.595,0.959,0.922
		c-0.045,0.389-0.435,0.671-0.927,0.671c-0.153,0-0.31-0.026-0.466-0.08c-2.164-0.735-6.888-2.024-10.76-3.065
		c-0.674-0.179-1.145-0.488-1.293-0.842C173.23,155.938,173.237,155.772,173.316,155.631 M227.764,89.921
		c3.619,0.991,7.258,4.438,7.258,4.438l-0.178,0.744c-3.504-0.716-8.568-1.463-12.148-1.916
		C222.696,93.188,224.077,88.901,227.764,89.921 M229.118,82.734c3.628,0.986,7.238,4.444,7.238,4.444l-0.154,0.726
		c-3.512-0.699-8.575-1.445-12.157-1.894C224.045,86.01,225.446,81.72,229.118,82.734 M146.379,75.25
		c1.292-0.571,2.614-1.104,3.965-1.599c1.197,2.364,2.414,4.702,3.649,7.008c1.236,2.306,2.519,4.604,3.852,6.89
		c0.398,0.681,0.794,1.344,1.189,1.988c0.395,0.648,0.789,1.308,1.186,1.99c0.381,0.653,0.791,1.39,1.232,2.208
		c0.442,0.819,0.949,1.536,1.527,2.146c0.575,0.613,1.232,1.023,1.973,1.23c0.742,0.207,1.601,0.023,2.582-0.546l1.04,1.691
		c-1.917,1.152-3.818,2.289-5.703,3.406c-1.883,1.114-3.791,2.238-5.722,3.364c-1.199,0.698-2.39,1.283-3.573,1.754
		c-1.185,0.472-2.324,0.707-3.419,0.707c-1.094,0-2.139-0.294-3.137-0.877c-0.998-0.587-1.91-1.588-2.734-3.001
		c-0.906-1.553-1.176-3.128-0.813-4.725c0.363-1.599,1.191-2.977,2.486-4.13c-2.044,1.117-4.017,1.457-5.918,1.015
		c-1.898-0.445-3.443-1.686-4.633-3.726c-0.937-1.608-1.333-3.145-1.186-4.617c0.146-1.472,0.626-2.836,1.442-4.094
		c0.816-1.263,1.849-2.411,3.104-3.451c1.251-1.042,2.533-1.942,3.84-2.705C143.832,76.462,145.089,75.817,146.379,75.25
		 M148.963,86.246c-0.745-1.117-1.456-2.261-2.14-3.431c-0.221-0.384-0.465-0.751-0.726-1.108c-0.263-0.358-0.558-0.642-0.88-0.854
		c-0.325-0.213-0.676-0.328-1.053-0.347c-0.373-0.018-0.805,0.119-1.295,0.402c-0.654,0.382-1.139,0.847-1.458,1.396
		c-0.317,0.551-0.502,1.14-0.553,1.772c-0.051,0.633,0.006,1.275,0.166,1.928c0.162,0.652,0.41,1.266,0.744,1.836
		c0.983,1.688,2.123,2.813,3.415,3.372c1.292,0.56,2.837,0.315,4.634-0.732c0.217-0.127,0.431-0.261,0.64-0.402
		c0.211-0.139,0.424-0.274,0.643-0.401C150.416,88.505,149.705,87.361,148.963,86.246 M157.004,100.98
		c0.169-0.121,0.335-0.225,0.498-0.32l-5.046-8.655c-0.152,0.051-0.295,0.118-0.431,0.195c-0.165,0.096-0.314,0.182-0.45,0.263
		l-0.368,0.213c-0.654,0.382-1.133,0.827-1.438,1.331c-0.308,0.508-0.473,1.052-0.499,1.635c-0.026,0.577,0.054,1.17,0.24,1.772
		c0.188,0.603,0.447,1.189,0.781,1.761c0.729,1.252,1.608,2.117,2.635,2.595c1.026,0.478,2.219,0.319,3.58-0.474
		C156.669,101.201,156.834,101.094,157.004,100.98 M116.543,128.008c-2.16-2.053-4.345-4.073-6.559-6.066
		c-0.572-0.514-1.125-1.035-1.663-1.561c-0.537-0.527-1.028-1.096-1.469-1.705c-0.906-1.197-1.498-2.42-1.779-3.668
		c-0.281-1.252-0.319-2.483-0.113-3.696c0.204-1.215,0.636-2.406,1.296-3.572c0.658-1.168,1.473-2.289,2.444-3.366
		c1.349-1.498,2.691-2.717,4.027-3.654c1.336-0.94,2.691-1.522,4.063-1.749c1.371-0.228,2.779-0.083,4.221,0.431
		s2.944,1.475,4.503,2.88c1.472,1.324,2.893,2.666,4.267,4.033c1.372,1.361,2.794,2.707,4.264,4.03
		c0.61,0.551,1.18,0.989,1.707,1.313c0.526,0.326,1.047,0.509,1.562,0.55c0.516,0.04,1.054-0.079,1.614-0.36
		c0.561-0.281,1.158-0.751,1.791-1.407l1.323,1.191c-0.937,1.7-2.003,3.284-3.198,4.753c-1.194,1.467-2.435,2.916-3.723,4.344
		l-14.203-12.663c-0.871-0.787-1.732-1.457-2.584-2.01c-0.851-0.553-1.703-0.899-2.558-1.032c-0.855-0.136-1.723-0.025-2.602,0.328
		c-0.879,0.354-1.781,1.047-2.71,2.075c-1.221,1.358-1.946,2.594-2.172,3.703c-0.225,1.112-0.128,2.154,0.294,3.129
		c0.422,0.974,1.086,1.911,1.992,2.811c0.905,0.901,1.879,1.821,2.92,2.758c2.083,1.874,4.184,3.694,6.305,5.455
		c2.121,1.761,4.286,3.509,6.494,5.243l-3.32,3.689C120.848,132.128,118.704,130.06,116.543,128.008 M84.625,142.765
		c2.52-0.118,5.061-0.302,7.559-0.413c2.5-0.114,5-0.284,7.503-0.515l0.159-0.343l-12.242-5.703l3.66-6.801
		c2.979,1.516,5.701,2.953,8.604,4.521c2.9,1.567,5.868,3.054,8.9,4.458c0.514,0.236,1.031,0.493,1.547,0.765
		c0.515,0.274,1.029,0.53,1.543,0.767c0.602,0.278,1.215,0.51,1.841,0.694c0.626,0.186,1.232,0.266,1.815,0.243
		c0.586-0.027,1.127-0.202,1.625-0.526c0.496-0.327,0.918-0.859,1.26-1.603l1.931,0.892c-0.937,2.102-1.881,4.199-2.832,6.293
		c-0.953,2.094-1.911,4.185-2.876,6.272c-0.543,1.174-1.159,2.285-1.855,3.334c-0.692,1.051-1.501,1.91-2.416,2.58
		c-0.918,0.67-1.941,1.083-3.071,1.236c-1.131,0.152-2.411-0.099-3.84-0.761c-1.945-0.901-3.314-2.124-4.108-3.671
		c-0.795-1.547-1-3.378-0.611-5.491c-1.088,0.021-2.17,0.091-3.25,0.216c-1.083,0.125-2.165,0.232-3.248,0.32
		c-0.535,0.031-1.15,0.068-1.847,0.11c-0.696,0.043-1.403,0.107-2.12,0.19c-2.023,0.235-4.236,0.73-5.147,2.765l-1.76-0.815
		L84.625,142.765z M107.5,151.233c0.612,0.143,1.2,0.182,1.771,0.115c0.569-0.067,1.087-0.27,1.556-0.608
		c0.469-0.338,0.863-0.85,1.18-1.538l0.793-1.716l-10.337-4.781c-0.095,0.128-0.177,0.249-0.244,0.356
		c-0.066,0.106-0.134,0.234-0.199,0.378c-0.41,0.885-0.59,1.686-0.541,2.406c0.051,0.717,0.26,1.368,0.632,1.956
		c0.369,0.588,0.865,1.113,1.483,1.573c0.621,0.46,1.318,0.869,2.09,1.228C106.284,150.879,106.89,151.087,107.5,151.233
		 M74.453,185.324c-0.007-1.856,0.094-3.693,0.305-5.507c0.285-2.441,0.862-4.673,1.731-6.698c0.869-2.025,2.033-3.721,3.495-5.09
		c1.458-1.37,3.209-2.379,5.251-3.029c2.043-0.652,4.378-0.824,7.008-0.518c2.91,0.336,5.336,1.167,7.277,2.487
		c1.938,1.318,3.469,2.962,4.588,4.933c1.12,1.969,1.846,4.179,2.18,6.628c0.335,2.451,0.351,4.957,0.054,7.526
		c-0.152,1.314-0.373,2.596-0.66,3.847c-0.289,1.251-0.691,2.465-1.209,3.643l-7.521-2.015l0.212-1.832
		c1.023-0.071,1.906-0.222,2.646-0.452c0.74-0.232,1.352-0.573,1.833-1.025c0.48-0.451,0.857-1.036,1.129-1.748
		c0.275-0.715,0.469-1.573,0.585-2.574c0.204-1.751,0.019-3.312-0.552-4.678c-0.57-1.367-1.401-2.543-2.492-3.527
		c-1.091-0.982-2.365-1.765-3.818-2.345c-1.457-0.581-2.981-0.964-4.577-1.152c-2.006-0.23-3.832-0.207-5.482,0.078
		c-1.652,0.284-3.097,0.845-4.336,1.685c-1.238,0.838-2.244,1.977-3.013,3.41c-0.768,1.434-1.274,3.183-1.513,5.247
		c-0.025,0.219-0.05,0.421-0.072,0.612c-0.024,0.216-0.019,0.44,0.019,0.667l11.366,1.273l-0.827,7.136
		c-0.714-0.148-1.413-0.275-2.097-0.386c-0.686-0.11-1.388-0.209-2.108-0.293c-1.472-0.171-2.931-0.31-4.376-0.414
		c-1.447-0.104-2.908-0.241-4.378-0.412C74.674,189.006,74.459,187.183,74.453,185.324 M78.074,226.829
		c-0.298-2.249-0.643-4.479-1.03-6.679c-0.342-1.956-0.702-3.908-1.077-5.86c-0.373-1.951-0.749-3.9-1.123-5.847
		c4.018-0.451,7.998-0.966,11.942-1.544c3.946-0.581,7.904-1.221,11.877-1.917c0.681-0.122,1.296-0.278,1.837-0.468
		c0.543-0.192,0.998-0.462,1.369-0.816s0.635-0.794,0.801-1.317c0.162-0.523,0.207-1.182,0.133-1.967l1.955-0.343l3.377,19.227
		l-3.865,0.679c-0.045-1.179-0.123-2.338-0.228-3.486c-0.106-1.151-0.262-2.318-0.468-3.494c-0.05-0.278-0.103-0.576-0.158-0.885
		c-0.048-0.278-0.112-0.556-0.192-0.83l-9.495,1.668l1.457,7.756l-3.705,0.221l-1.152-7.38l-6.424,1.129
		c-0.776,0.136-1.448,0.269-2.016,0.399c-0.57,0.133-1.021,0.34-1.354,0.624c-0.335,0.28-0.546,0.679-0.632,1.188
		c-0.086,0.514-0.051,1.217,0.107,2.118l0.401,2.28c0.137,0.776,0.303,1.363,0.501,1.762c0.198,0.395,0.458,0.694,0.781,0.894
		c0.323,0.196,0.729,0.325,1.219,0.386c0.491,0.056,1.078,0.122,1.762,0.194l0.327,1.861L78.074,226.829z M116.034,291.359
		c-1.435-1.179-2.785-2.428-4.049-3.746c-1.7-1.775-3.053-3.643-4.059-5.602c-1.006-1.962-1.572-3.94-1.695-5.938
		c-0.126-1.997,0.213-3.991,1.013-5.979c0.799-1.987,2.155-3.898,4.067-5.728c2.115-2.029,4.299-3.371,6.553-4.023
		c2.254-0.653,4.496-0.785,6.727-0.392c2.232,0.393,4.398,1.241,6.497,2.548c2.102,1.301,4.045,2.887,5.834,4.752
		c0.915,0.953,1.764,1.941,2.543,2.962c0.781,1.019,1.46,2.104,2.037,3.254l-6.347,4.511l-1.276-1.332
		c0.598-0.834,1.043-1.609,1.338-2.328c0.293-0.717,0.418-1.406,0.377-2.064c-0.041-0.659-0.25-1.32-0.626-1.986
		c-0.376-0.665-0.912-1.359-1.61-2.088c-1.221-1.275-2.539-2.129-3.957-2.562c-1.417-0.427-2.853-0.537-4.305-0.323
		c-1.454,0.212-2.867,0.695-4.242,1.447c-1.376,0.75-2.644,1.68-3.805,2.795c-1.455,1.395-2.599,2.816-3.433,4.271
		c-0.832,1.454-1.323,2.925-1.465,4.416c-0.143,1.489,0.092,2.986,0.707,4.494c0.614,1.505,1.641,3.009,3.08,4.512
		c0.152,0.157,0.294,0.306,0.426,0.442c0.151,0.16,0.326,0.298,0.525,0.412l8.226-7.948l4.969,5.188
		c-0.566,0.457-1.111,0.913-1.633,1.37c-0.523,0.456-1.045,0.937-1.57,1.437c-1.068,1.025-2.103,2.061-3.107,3.11
		c-1.003,1.05-2.038,2.087-3.108,3.109C119.012,293.532,117.467,292.539,116.034,291.359 M150.796,314.749
		c-1.926-1.199-3.862-2.353-5.808-3.457c-1.726-0.979-3.462-1.943-5.204-2.896c-1.742-0.952-3.485-1.903-5.227-2.855
		c2.209-3.384,4.343-6.782,6.406-10.195c2.061-3.414,4.088-6.872,6.076-10.383c0.342-0.601,0.614-1.174,0.811-1.715
		c0.196-0.538,0.277-1.064,0.24-1.573c-0.037-0.509-0.205-0.995-0.506-1.454c-0.3-0.462-0.778-0.91-1.433-1.354l0.98-1.728
		l16.981,9.626l-1.936,3.414c-0.937-0.713-1.881-1.394-2.835-2.041c-0.954-0.653-1.952-1.271-2.993-1.862
		c-0.246-0.14-0.508-0.288-0.781-0.442c-0.247-0.139-0.502-0.268-0.764-0.378l-4.755,8.387l6.911,3.811l-2.187,2.998l-6.426-3.808
		l-3.217,5.676c-0.389,0.683-0.715,1.286-0.972,1.811c-0.263,0.522-0.389,1.002-0.383,1.438c0.004,0.438,0.176,0.855,0.515,1.246
		c0.341,0.391,0.909,0.812,1.704,1.262l2.013,1.143c0.685,0.391,1.244,0.634,1.676,0.734c0.432,0.1,0.828,0.088,1.188-0.035
		c0.358-0.119,0.716-0.353,1.073-0.694c0.356-0.34,0.78-0.751,1.27-1.233l1.645,0.932L150.796,314.749z M195.844,327.207
		c0.244-3.861,0.529-7.715,0.852-11.562c0.324-3.848,0.606-7.701,0.852-11.565c-2.227,3.316-4.396,6.654-6.505,10.02
		c-2.111,3.37-4.192,6.771-6.252,10.211l-3.581-0.641c-0.925-3.947-1.78-7.877-2.565-11.794c-0.783-3.917-1.673-7.84-2.666-11.764
		c-0.934,3.769-1.9,7.511-2.902,11.22c-1.003,3.709-1.927,7.476-2.772,11.291l-5.008-1.69c0.725-1.567,1.52-3.349,2.319-5.395
		c0.8-2.048,1.57-4.114,2.312-6.188c0.74-2.073,1.419-4.162,2.036-6.262c0.616-2.098,1.12-4.231,1.511-6.403l0.059-0.325
		c0.158-1.399-0.399-2.021-0.668-2.212c-0.27-0.191-0.585-0.354-0.946-0.482c-0.361-0.131-0.724-0.244-1.091-0.339l0.419-2.064
		c1.669,0.263,2.901,0.469,4.079,0.681c0.714,0.129,4.33,0.883,5.005,1.052c0.672,0.17,1.362,0.349,2.063,0.54
		c0.692,3.453,1.414,6.872,2.168,10.256c0.753,3.384,1.542,6.799,2.363,10.243c1.969-2.939,3.897-5.885,5.785-8.828
		c1.89-2.941,3.616-5.801,5.41-8.841l7.541,0.777c-0.465,4.012-1.004,8.409-1.38,12.372c-0.376,3.967-0.61,7.988-0.798,12.057
		c-0.093,2.005,0.28,2.638,0.947,3.312c0.321,0.328,1.185,0.784,2.364,1.009l-0.367,2.044L195.844,327.207z M240.494,323.8
		c-2.248,0.298-4.479,0.636-6.68,1.022c-1.956,0.344-3.909,0.697-5.86,1.069s-3.903,0.743-5.849,1.113
		c-0.445-4.014-0.956-7.994-1.532-11.939c-0.576-3.947-1.209-7.906-1.905-11.879c-0.116-0.684-0.272-1.296-0.462-1.84
		c-0.192-0.542-0.464-0.996-0.814-1.368c-0.355-0.371-0.792-0.638-1.316-0.803s-1.18-0.209-1.968-0.138l-0.338-1.956l19.229-3.352
		l0.673,3.865c-1.176,0.046-2.339,0.12-3.487,0.224c-1.151,0.103-2.315,0.258-3.491,0.465c-0.282,0.048-0.577,0.101-0.885,0.155
		c-0.28,0.049-0.557,0.114-0.834,0.191l1.659,9.499l7.758-1.447l0.216,3.703l-7.382,1.145l1.121,6.426
		c0.135,0.777,0.266,1.448,0.396,2.015c0.132,0.574,0.339,1.021,0.624,1.358c0.279,0.332,0.677,0.544,1.186,0.629
		c0.514,0.088,1.218,0.054,2.119-0.104l2.282-0.396c0.777-0.134,1.363-0.303,1.761-0.5c0.396-0.196,0.696-0.456,0.896-0.779
		c0.195-0.324,0.325-0.729,0.385-1.219c0.058-0.491,0.123-1.079,0.198-1.762l1.863-0.324L240.494,323.8z M257.484,302.41
		l3.468,8.283l2.356,5.622l-7.191,3.016c-1.275-3.7-2.594-7.353-3.947-10.952c-1.357-3.599-2.788-7.199-4.302-10.804
		c-0.326-0.786-0.664-1.448-1.01-1.987c-0.343-0.536-0.75-0.932-1.21-1.181c-0.467-0.252-1.001-0.366-1.609-0.352
		c-0.61,0.018-1.341,0.185-2.194,0.51l-0.712-1.7c1.39-0.995,2.85-1.879,4.37-2.651c1.519-0.775,3.068-1.492,4.635-2.149
		l1.136-0.474L257.484,302.41z M285.305,271.634c1.215,1.672,2.437,3.347,3.673,5.019c3.681,4.885,7.4,9.731,11.189,14.649
		l-3.372,3.155c-8.825-2.198-18.123-4.227-27.087-5.837c2.232,2.733,4.431,5.454,6.598,8.158c2.166,2.705,4.618,5.484,7,8.104
		l-4.269,2.63c-1.041-1.626-1.929-2.905-3.041-4.477c-1.114-1.569-2.25-3.142-3.41-4.715c-1.286-1.791-2.584-3.568-3.887-5.329
		c-1.305-1.759-2.64-3.509-4.002-5.24c-0.818-1.042-1.601-1.659-2.356-1.848c-0.751-0.191-1.708,0.072-2.866,0.784l-1.083-1.377
		c0.668-0.726,1.363-1.421,2.084-2.087c0.721-0.669,1.475-1.311,2.267-1.935c0.349-0.273,0.697-0.528,1.051-0.766
		c0.356-0.238,0.724-0.468,1.113-0.691c4.387,0.995,8.761,1.943,13.119,2.847c4.359,0.902,8.747,1.741,13.163,2.518
		c-2.247-2.604-4.446-5.221-6.601-7.859c-2.152-2.635-4.194-4.937-6.562-7.445l3.679-3.331
		C282.892,268.274,284.09,269.965,285.305,271.634 M320.579,248.02c1.368,2.031,2.205,4.19,2.514,6.488
		c0.306,2.292,0.123,4.664-0.555,7.1c-0.672,2.439-1.776,4.876-3.296,7.307c-0.754,1.201-1.548,2.355-2.379,3.474
		c-0.83,1.115-1.741,2.199-2.735,3.249c-2.424-1.705-4.846-3.377-7.266-5.006c-2.417-1.629-4.881-3.229-7.391-4.807l-4.924-3.086
		c-0.639-0.404-1.231-0.72-1.776-0.949c-0.546-0.23-1.072-0.34-1.582-0.326c-0.514,0.017-1.009,0.17-1.49,0.465
		c-0.481,0.289-0.98,0.762-1.495,1.403l-1.625-0.965c1.504-2.401,2.992-4.784,4.451-7.14c1.457-2.354,2.944-4.737,4.452-7.137
		c1.171-1.868,2.457-3.441,3.855-4.723c1.398-1.283,2.899-2.191,4.502-2.728c1.602-0.537,3.302-0.67,5.102-0.4
		c1.801,0.277,3.702,1.041,5.703,2.3C317.232,244.164,319.211,245.99,320.579,248.02 M295.344,253.863
		c-0.153,0.275-0.323,0.56-0.506,0.854l17.016,10.229c0.613,0.386,1.187,0.746,1.721,1.08c0.505,0.319,0.998,0.514,1.47,0.59
		c0.476,0.072,0.939-0.015,1.398-0.268c0.455-0.254,0.934-0.779,1.437-1.58c0.905-1.443,1.32-2.871,1.245-4.298
		c-0.075-1.421-0.442-2.78-1.103-4.065c-0.66-1.29-1.55-2.481-2.667-3.571c-1.119-1.095-2.277-2.017-3.481-2.769
		c-1.013-0.641-2.144-1.21-3.39-1.714c-1.246-0.503-2.48-0.82-3.698-0.95c-1.095-0.093-2.073-0.018-2.931,0.223
		c-0.859,0.243-1.646,0.626-2.362,1.141c-0.716,0.519-1.368,1.144-1.955,1.87c-0.587,0.729-1.15,1.519-1.685,2.371
		C295.668,253.302,295.499,253.588,295.344,253.863 M339.992,218.894c-0.678,2.167-1.308,4.33-1.888,6.487
		c-0.513,1.919-1.012,3.841-1.493,5.768c-0.485,1.926-0.966,3.853-1.452,5.777c-3.831-1.287-7.654-2.501-11.476-3.637
		c-3.823-1.14-7.682-2.231-11.577-3.277c-0.669-0.177-1.291-0.292-1.863-0.349c-0.572-0.056-1.1-0.001-1.586,0.161
		c-0.482,0.161-0.911,0.449-1.279,0.856c-0.371,0.407-0.69,0.981-0.952,1.728l-1.918-0.517l5.051-18.853l3.791,1.015
		c-0.454,1.085-0.876,2.169-1.266,3.257c-0.388,1.087-0.738,2.209-1.046,3.366c-0.075,0.273-0.152,0.562-0.234,0.867
		c-0.074,0.273-0.132,0.552-0.175,0.835l9.313,2.492l1.953-7.649l3.45,1.366l-2.071,7.177l6.302,1.688
		c0.757,0.205,1.426,0.369,1.997,0.488c0.571,0.119,1.068,0.121,1.49,0.008s0.782-0.387,1.074-0.814
		c0.293-0.426,0.561-1.079,0.795-1.963l0.602-2.238c0.204-0.759,0.298-1.361,0.286-1.806c-0.01-0.443-0.119-0.823-0.329-1.141
		c-0.21-0.315-0.525-0.606-0.943-0.863c-0.421-0.26-0.925-0.567-1.514-0.922l0.487-1.825L339.992,218.894z M341.087,179.129
		c0.063,1.41,0.079,2.834,0.051,4.275c-2.638,0.255-5.26,0.541-7.857,0.854c-2.598,0.311-5.206,0.677-7.819,1.089
		c-0.776,0.12-1.538,0.249-2.285,0.383c-0.743,0.133-1.506,0.258-2.283,0.382c-0.747,0.119-1.581,0.234-2.504,0.346
		c-0.923,0.115-1.775,0.328-2.557,0.643c-0.778,0.313-1.398,0.778-1.86,1.393c-0.461,0.615-0.604,1.483-0.428,2.602l-1.954,0.354
		c-0.378-2.203-0.745-4.385-1.103-6.546c-0.355-2.163-0.706-4.346-1.055-6.556c-0.215-1.369-0.327-2.692-0.337-3.967
		c-0.009-1.273,0.186-2.42,0.583-3.441c0.398-1.02,1.05-1.888,1.958-2.605c0.908-0.717,2.172-1.202,3.788-1.457
		c1.774-0.279,3.341,0.04,4.697,0.958c1.358,0.919,2.339,2.192,2.947,3.819c-0.301-2.311,0.099-4.274,1.201-5.88
		c1.102-1.612,2.821-2.6,5.158-2.967c1.837-0.289,3.412-0.099,4.729,0.571c1.318,0.671,2.418,1.614,3.294,2.831
		c0.878,1.218,1.572,2.599,2.087,4.147c0.515,1.544,0.89,3.063,1.124,4.558C340.882,176.316,341.025,177.722,341.087,179.129
		 M313.255,179.686c0.047,0.2,0.085,0.39,0.116,0.579l9.898-1.56c0.007-0.159-0.003-0.315-0.028-0.474
		c-0.029-0.186-0.056-0.357-0.08-0.514l-0.067-0.42c-0.116-0.745-0.355-1.355-0.718-1.825c-0.359-0.469-0.807-0.82-1.338-1.056
		c-0.532-0.234-1.112-0.375-1.74-0.42c-0.63-0.044-1.271-0.013-1.925,0.086c-1.431,0.228-2.553,0.733-3.374,1.514
		c-0.818,0.781-1.103,1.951-0.86,3.508C313.169,179.29,313.207,179.484,313.255,179.686 M329.903,177.541
		c1.312-0.285,2.635-0.532,3.975-0.744c0.434-0.067,0.868-0.159,1.294-0.276c0.431-0.118,0.801-0.285,1.116-0.51
		c0.319-0.226,0.55-0.511,0.704-0.853c0.154-0.34,0.184-0.794,0.097-1.355c-0.117-0.745-0.373-1.367-0.772-1.863
		c-0.398-0.497-0.881-0.883-1.448-1.16c-0.573-0.277-1.19-0.459-1.856-0.545c-0.67-0.086-1.331-0.079-1.982,0.026
		c-1.93,0.303-3.389,0.956-4.38,1.956c-0.992,1.001-1.327,2.53-1.001,4.584c0.039,0.25,0.086,0.495,0.14,0.742
		c0.055,0.246,0.101,0.495,0.14,0.744C327.27,178.075,328.593,177.827,329.903,177.541 M325.059,128.929
		c0.863,2.098,1.764,4.166,2.699,6.196c0.83,1.804,1.676,3.601,2.532,5.391c0.859,1.79,1.717,3.58,2.578,5.369
		c-3.768,1.459-7.486,2.971-11.152,4.539c-3.668,1.567-7.332,3.195-10.996,4.881c-0.629,0.29-1.181,0.596-1.657,0.92
		c-0.475,0.322-0.849,0.704-1.116,1.138c-0.265,0.436-0.411,0.927-0.438,1.478c-0.023,0.549,0.101,1.193,0.372,1.935l-1.804,0.831
		l-8.164-17.73l3.562-1.641c0.345,1.123,0.715,2.231,1.108,3.314c0.397,1.084,0.844,2.17,1.347,3.258
		c0.118,0.257,0.242,0.528,0.374,0.816c0.118,0.257,0.253,0.507,0.4,0.752l8.756-4.033l-3.386-7.131l3.527-1.155l2.994,6.844
		l5.924-2.73c0.718-0.33,1.33-0.634,1.847-0.904c0.519-0.273,0.901-0.589,1.15-0.947c0.254-0.358,0.357-0.795,0.31-1.311
		c-0.047-0.516-0.263-1.19-0.643-2.021l-0.97-2.102c-0.331-0.715-0.642-1.24-0.933-1.575c-0.294-0.332-0.621-0.554-0.984-0.664
		c-0.365-0.111-0.787-0.131-1.278-0.064c-0.488,0.068-1.073,0.156-1.754,0.262l-0.791-1.717L325.059,128.929z M89.996,256.618
		c1.499-2.03,2.959-4.118,4.448-6.126c1.489-2.011,2.935-4.06,4.334-6.146l-0.166-0.341l-12.133,5.915l-2.969-7.13
		c3.055-1.355,5.873-2.574,8.92-3.838c3.047-1.263,6.071-2.628,9.074-4.095c0.508-0.25,1.033-0.487,1.569-0.717
		c0.539-0.228,1.06-0.466,1.57-0.714c0.596-0.291,1.161-0.621,1.699-0.989c0.539-0.37,0.985-0.789,1.332-1.258
		c0.35-0.469,0.556-1,0.617-1.592c0.061-0.591-0.086-1.253-0.448-1.989l1.911-0.935c1.038,2.053,2.071,4.107,3.096,6.168
		c1.025,2.059,2.042,4.12,3.053,6.188c0.569,1.161,1.041,2.34,1.417,3.542c0.378,1.199,0.535,2.369,0.477,3.501
		c-0.059,1.135-0.385,2.189-0.977,3.165c-0.595,0.974-1.599,1.808-3.013,2.499c-1.926,0.94-3.738,1.231-5.439,0.871
		c-1.704-0.359-3.253-1.355-4.647-2.989c-0.67,0.856-1.298,1.74-1.883,2.658c-0.586,0.918-1.185,1.825-1.801,2.723
		c-0.312,0.433-0.673,0.935-1.079,1.501c-0.406,0.567-0.801,1.158-1.19,1.766c-1.094,1.718-2.105,3.748-1.102,5.737l-1.74,0.853
		L89.996,256.618z M110.997,244.209c0.496-0.385,0.897-0.817,1.205-1.302c0.308-0.482,0.476-1.013,0.511-1.589
		c0.034-0.579-0.116-1.208-0.449-1.888l-0.83-1.696l-10.232,5.004c0.041,0.155,0.082,0.294,0.123,0.413s0.097,0.251,0.166,0.394
		c0.429,0.876,0.937,1.522,1.527,1.937c0.588,0.413,1.226,0.662,1.916,0.743c0.689,0.085,1.41,0.033,2.157-0.157
		c0.749-0.191,1.505-0.474,2.27-0.847C109.954,244.93,110.498,244.59,110.997,244.209 M252.751,93.867
		c1.118-1.737,2.235-3.485,3.346-5.241c3.216-5.202,6.386-10.427,9.596-15.74l4.163,1.999c1.149,9.021,2.63,18.423,4.38,27.36
		c1.738-3.071,3.475-6.107,5.211-9.107c1.736-3,3.436-6.292,5.015-9.461l3.998,3.025c-1.138,1.559-2.007,2.851-3.067,4.457
		c-1.06,1.608-2.116,3.238-3.16,4.887c-1.204,1.849-2.39,3.703-3.557,5.555c-1.166,1.855-2.313,3.733-3.434,5.632
		c-0.673,1.137-0.966,2.091-0.869,2.863c0.095,0.769,0.688,1.566,1.772,2.388l-0.891,1.506c-0.92-0.358-1.82-0.754-2.699-1.185
		c-0.886-0.428-1.759-0.899-2.625-1.41c-0.384-0.226-0.747-0.457-1.096-0.703c-0.35-0.245-0.698-0.504-1.049-0.786
		c-0.663-4.45-1.363-8.871-2.1-13.258c-0.741-4.391-1.55-8.783-2.426-13.182c-1.613,3.039-3.255,6.038-4.93,9
		c-1.681,2.962-3.131,5.726-4.61,8.845l-4.438-2.223C250.447,97.361,251.634,95.606,252.751,93.867 M306.726,103.47
		c-0.946,2.34-1.839,4.723-2.783,7.039c-0.941,2.318-1.831,4.662-2.666,7.031l0.244,0.289l10.393-8.839l4.652,6.167
		c-2.621,2.074-5.163,4.045-7.8,6.028c-2.636,1.98-5.225,4.055-7.768,6.223c-0.431,0.368-0.878,0.73-1.341,1.085
		c-0.465,0.356-0.912,0.715-1.343,1.082c-0.505,0.431-0.971,0.891-1.402,1.382c-0.428,0.492-0.756,1.01-0.978,1.55
		c-0.219,0.54-0.288,1.106-0.2,1.693c0.088,0.588,0.395,1.194,0.929,1.818l-1.619,1.38c-1.515-1.731-3.024-3.463-4.533-5.204
		c-1.506-1.739-3.003-3.483-4.496-5.233c-0.839-0.983-1.591-2.008-2.254-3.077c-0.665-1.067-1.107-2.161-1.333-3.274
		s-0.172-2.215,0.158-3.308c0.332-1.091,1.1-2.15,2.298-3.17c1.63-1.391,3.312-2.123,5.049-2.197
		c1.74-0.076,3.488,0.504,5.245,1.736c0.438-0.994,0.824-2.005,1.163-3.041c0.339-1.036,0.695-2.063,1.066-3.084
		c0.196-0.499,0.42-1.074,0.672-1.723c0.25-0.651,0.487-1.321,0.711-2.006c0.633-1.937,1.108-4.155-0.358-5.832l1.474-1.257
		L306.726,103.47z M289.475,120.713c-0.383,0.497-0.665,1.016-0.843,1.561c-0.178,0.543-0.209,1.099-0.1,1.667
		c0.112,0.57,0.414,1.14,0.905,1.715l1.228,1.438l8.664-7.395c-0.079-0.138-0.152-0.262-0.222-0.368
		c-0.069-0.105-0.157-0.219-0.26-0.34c-0.634-0.742-1.286-1.241-1.96-1.496c-0.674-0.254-1.352-0.337-2.041-0.243
		c-0.688,0.09-1.373,0.318-2.051,0.69c-0.676,0.372-1.339,0.833-1.987,1.384C290.306,119.757,289.863,120.221,289.475,120.713"/>
</g>
</svg>
